<?xml version="1.0" encoding="UTF-8"?>
<svg id="Layer_2" xmlns="http://www.w3.org/2000/svg" viewBox="0 0 815.62 815.62">
  <g id="Layer_1-2" data-name="Layer_1">
    <path d="M611.71,314.92c-6.8,11.33-18.12,22.66-29.45,29.45-38.51,27.19-67.97,47.58-88.36,61.17-11.33,6.8-20.39,13.59-24.92,18.12,0,0-2.27,2.27-4.53,2.27-2.27,2.27-4.53,2.27-6.8,4.53-4.53,4.53-9.06,6.8-13.59,9.06-4.53,2.27-6.8,4.53-13.59,6.8-4.53,2.27-9.06,4.53-13.59,6.8-4.53,2.27-9.06,2.27-11.33,2.27-4.53,0-6.8,0-11.33-2.27-4.53-2.27-9.06-4.53-13.59-6.8-4.53-2.27-9.06-4.53-13.59-6.8-4.53-2.27-6.8-4.53-13.59-9.06-2.27-2.27-4.53-4.53-6.8-4.53q-2.27-2.27-4.53-2.27c-6.8-4.53-15.86-11.33-24.92-18.12-11.33-6.8-24.92-15.86-38.52-27.19-27.19-18.12-45.31-31.72-49.84-33.98-9.06-6.8-20.39-15.86-29.45-27.19-9.06-11.33-13.59-22.66-13.59-33.98,0-13.59,2.27-22.66,9.06-31.72,6.8-9.06,15.86-13.59,29.45-13.59h357.97c11.33,0,20.39,4.53,27.19,11.33,6.8,6.8,11.33,15.86,11.33,27.19,2.27,15.86,0,27.19-9.06,38.52ZM618.51,532.42l-108.75-108.75c22.66-15.86,52.11-36.25,83.83-56.64,9.06-6.8,18.12-13.59,24.92-20.39v185.78ZM194.84,532.42v-188.05c6.8,6.8,15.86,15.86,24.92,20.39,33.98,22.66,63.44,43.05,83.83,56.64l-108.75,111.02ZM584.53,577.73H226.56c-9.06,0-18.13-2.27-24.92-9.06l122.34-122.34c2.27,2.27,6.8,4.53,9.06,6.8,9.06,6.8,15.86,11.33,22.66,15.86,6.8,4.53,13.59,6.8,22.66,11.33,9.06,4.53,18.12,6.8,27.19,6.8s18.12-2.27,27.19-6.8c9.06-4.53,18.12-6.8,22.66-11.33,6.8-4.53,13.59-9.06,22.66-15.86,2.27-2.27,4.53-4.53,9.06-6.8l122.34,122.34c-6.8,4.53-13.59,9.06-24.92,9.06ZM407.81,0C183.51,0,0,183.51,0,407.81s183.51,407.81,407.81,407.81,407.81-183.51,407.81-407.81S632.11,0,407.81,0Z"/>
  </g>
</svg>