<?xml version="1.0" encoding="UTF-8"?>
<svg id="Layer_2" xmlns="http://www.w3.org/2000/svg" viewBox="0 0 684.64 158.56">
  <defs>
    <style>
      .cls-1 {
        fill: #492423;
      }
    </style>
  </defs>
  <g id="Layer_1-2" data-name="Layer_1">
    <g>
      <g>
        <path class="cls-1" d="M144.18,143.75l-4.83,14.64h4.28l.85-2.81h4.83l.85,2.81h4.28l-4.83-14.64h-5.42ZM145.38,152.61l1.46-4.83h.12l1.46,4.83h-3.04Z"/>
        <path class="cls-1" d="M140.18,154.07c0-.56-.09-1.07-.27-1.54-.17-.47-.44-.89-.82-1.27-.37-.38-.84-.71-1.42-.99-.58-.28-1.27-.51-2.07-.68l-1.2-.26c-.46-.1-.83-.21-1.13-.33-.29-.13-.5-.28-.64-.45-.13-.18-.2-.38-.2-.61,0-.22.06-.41.19-.58.12-.17.32-.3.58-.39.26-.1.6-.15,1-.15.64,0,1.12.13,1.43.4.32.26.5.63.53,1.11h3.81c0-.96-.25-1.79-.72-2.5-.46-.72-1.13-1.28-1.99-1.67-.86-.4-1.88-.6-3.06-.6s-2.18.2-3.07.59c-.88.39-1.58.93-2.08,1.63-.5.69-.76,1.51-.76,2.44,0,1.15.37,2.05,1.11,2.72.75.66,1.76,1.13,3.05,1.4l1.47.31c.54.11.98.24,1.3.37.32.14.55.29.69.46.14.16.22.36.22.58,0,.24-.08.46-.23.65-.14.18-.36.33-.65.43-.29.1-.64.16-1.07.16-.51,0-.95-.08-1.32-.24-.36-.16-.64-.39-.84-.7-.2-.31-.31-.68-.33-1.13h-3.77c0,1.22.27,2.23.8,3.02.52.79,1.26,1.37,2.2,1.75.95.37,2.06.56,3.33.56s2.3-.17,3.18-.52c.88-.35,1.56-.85,2.03-1.52.48-.67.72-1.49.72-2.46Z"/>
        <polygon class="cls-1" points="128.58 143.75 123.95 143.75 119.55 149.67 119.35 149.67 119.35 143.75 115.38 143.75 115.38 158.39 119.35 158.39 119.35 154.62 120.67 152.91 123.95 158.39 128.7 158.39 123.63 150.27 128.58 143.75"/>
        <path class="cls-1" d="M13.79,39.77V0H0v150.41c0,4.47,3.37,8.1,7.52,8.1h102.36v-14.22H13.79V39.77Z"/>
        <path class="cls-1" d="M47.36,8.59v30.1h62.79v-13.95h-49.9v-10.78h105.93v25.68l-.15,101.42v16.9h14.95V0H55.94c-4.74,0-8.58,3.84-8.58,8.59Z"/>
        <path class="cls-1" d="M79.07,133.4h31.08V49.45h-31.08v83.94ZM91.12,62.98h6.97v57.94h-6.97v-57.94Z"/>
        <rect class="cls-1" x="24.1" y=".19" width="13.95" height="62.8"/>
        <polygon class="cls-1" points="38.05 104.5 41.68 114.57 43.95 120.92 47.36 130.37 48.44 133.39 73.57 133.39 73.57 120.92 60.25 120.92 60.25 62.98 73.57 62.98 73.57 49.45 47.36 49.45 47.36 97.99 42.75 85.19 38.19 72.5 24.1 72.5 24.1 133.39 38.05 133.39 38.05 104.5"/>
        <path class="cls-1" d="M151.22,24.92h-36.73v13.95h27.91v10.57h-27.91v83.95h13.53v-18.82h14.38v18.82h13.32v-19.07l-5.91-5.91,5.91-5.91v-30h-27.7v-9.52h27.7V29.42c0-2.48-2.02-4.5-4.5-4.5ZM142.39,85.18v17.13h-14.38v-17.13h14.38Z"/>
      </g>
      <path class="cls-1" d="M670.17,132.99h14.46l-22.73-74.39h-20.97l-22.73,74.39h14.46l4.71-15.5h28.01l4.78,15.5ZM641.37,104.37l9.91-32.6,10.06,32.6h-19.97Z"/>
      <path class="cls-1" d="M616.1,101.58c-1.38-2.45-3.15-4.41-5.32-5.89-2.14-1.52-4.37-2.69-6.72-3.51-2.34-.86-4.48-1.55-6.41-2.07l-12.91-3.51c-1.58-.41-3.13-.93-4.65-1.55-1.52-.62-2.77-1.43-3.77-2.43-1-1.03-1.5-2.36-1.5-3.98,0-1.76.6-3.27,1.81-4.55,1.24-1.27,2.82-2.24,4.75-2.89,1.96-.69,4.05-1,6.25-.93,2.24.07,4.37.53,6.41,1.39,2.07.86,3.84,2.12,5.32,3.77,1.48,1.65,2.5,3.69,3.05,6.1l15.19-2.58c-1.21-4.65-3.17-8.58-5.89-11.78-2.72-3.24-6.1-5.7-10.12-7.39-4.03-1.69-8.61-2.57-13.74-2.63-5.1-.03-9.75.76-13.95,2.38-4.2,1.62-7.56,4.08-10.07,7.39-2.51,3.31-3.77,7.46-3.77,12.45,0,3.55.59,6.49,1.76,8.83,1.21,2.31,2.7,4.17,4.49,5.58,1.79,1.41,3.63,2.5,5.53,3.25,1.93.76,3.62,1.34,5.06,1.76l19.32,5.68c1.45.45,2.63.95,3.56,1.5.96.55,1.7,1.14,2.22,1.76.52.62.88,1.29,1.08,2.01.24.69.36,1.41.36,2.17,0,2.07-.71,3.81-2.12,5.22-1.38,1.41-3.15,2.48-5.32,3.2s-4.41,1.08-6.72,1.08c-4.13,0-7.82-1.15-11.05-3.46-3.24-2.31-5.37-5.6-6.41-9.87l-14.67,2.17c.76,5.03,2.55,9.37,5.37,13.02,2.86,3.62,6.49,6.41,10.9,8.37,4.44,1.93,9.42,2.89,14.93,2.89,3.79,0,7.46-.48,11-1.45,3.58-.96,6.78-2.41,9.61-4.34,2.82-1.96,5.06-4.43,6.72-7.39,1.69-3,2.53-6.49,2.53-10.49,0-3.75-.71-6.85-2.12-9.3Z"/>
      <polygon class="cls-1" points="560.38 58.59 543.23 58.59 514.92 92.9 514.92 58.59 500.87 58.59 500.87 132.98 514.92 132.98 514.92 99.09 544.57 132.98 562.34 132.98 529.28 95.27 560.38 58.59"/>
      <path class="cls-1" d="M483.2,79.47c-3.96-2.55-8.61-3.82-13.95-3.82s-9.76,1.29-13.38,3.87c-.34.24-.66.5-.98.76v-3.08h-12.4v80.59h14.15v-26.76c3.62,2.33,8.06,3.52,13.33,3.52s9.63-1.29,13.48-3.87c3.86-2.58,6.85-6.1,8.99-10.54,2.17-4.44,3.25-9.45,3.25-15.03s-1.1-10.73-3.31-15.14c-2.17-4.44-5.23-7.94-9.2-10.49ZM479.43,113.66c-.93,2.55-2.36,4.58-4.29,6.1-1.93,1.52-4.41,2.27-7.44,2.27s-5.65-.71-7.54-2.12c-1.86-1.41-3.2-3.39-4.03-5.94-.83-2.55-1.24-5.51-1.24-8.89s.41-6.34,1.24-8.89c.83-2.55,2.14-4.53,3.93-5.94,1.83-1.41,4.2-2.12,7.13-2.12,3.13,0,5.7.77,7.7,2.32,2.03,1.52,3.53,3.56,4.49,6.15.96,2.55,1.45,5.37,1.45,8.47s-.46,5.99-1.39,8.58Z"/>
      <path class="cls-1" d="M433.91,77.09c-1.69.1-3.32.4-4.91.88-1.58.45-3.05,1.08-4.39,1.91-1.76,1.03-3.24,2.34-4.44,3.93-.57.75-1.09,1.55-1.55,2.38v-8.99h-12.4v55.79h14.15v-28.52c0-2.14.29-4.05.88-5.73.59-1.72,1.45-3.2,2.58-4.44,1.14-1.27,2.53-2.29,4.18-3.05,1.65-.79,3.5-1.26,5.53-1.4,2.07-.17,3.87-.02,5.42.47v-13.12c-1.69-.21-3.37-.24-5.06-.1Z"/>
      <path class="cls-1" d="M387.52,79.42c-4.24-2.51-9.16-3.77-14.77-3.77s-10.38,1.24-14.62,3.72c-4.24,2.48-7.56,5.94-9.97,10.38-2.41,4.41-3.62,9.52-3.62,15.34s1.17,10.85,3.51,15.29c2.38,4.41,5.68,7.87,9.92,10.38,4.24,2.51,9.16,3.77,14.77,3.77s10.49-1.24,14.72-3.72c4.27-2.51,7.59-5.98,9.97-10.38,2.41-4.44,3.62-9.56,3.62-15.34s-1.19-10.83-3.56-15.24c-2.38-4.44-5.7-7.92-9.97-10.44ZM382.82,116.87c-2.2,3.03-5.56,4.55-10.07,4.55s-7.7-1.46-9.97-4.39c-2.24-2.96-3.36-6.94-3.36-11.93,0-3.24.46-6.08,1.39-8.52.96-2.45,2.43-4.36,4.39-5.73,1.96-1.38,4.48-2.07,7.54-2.07,4.44,0,7.78,1.48,10.02,4.44,2.27,2.96,3.41,6.92,3.41,11.88s-1.12,8.71-3.36,11.78Z"/>
      <path class="cls-1" d="M326.94,119.24c-1.65,1.45-4.06,2.17-7.23,2.17-4.24,0-7.44-1.5-9.61-4.49-2.14-3.03-3.2-6.97-3.2-11.83,0-3.1.45-5.87,1.34-8.32.9-2.48,2.29-4.43,4.18-5.84,1.89-1.45,4.32-2.17,7.28-2.17,2.58,0,4.89.81,6.92,2.43,2.07,1.62,3.51,3.87,4.34,6.77l14.05-3.72c-1.24-5.75-4.1-10.28-8.58-13.59-4.44-3.34-9.95-5.01-16.53-5.01-5.68,0-10.61,1.27-14.77,3.82-4.17,2.55-7.4,6.04-9.71,10.49-2.27,4.44-3.41,9.49-3.41,15.14s1.1,10.59,3.31,15.03c2.2,4.44,5.37,7.96,9.51,10.54,4.13,2.58,9.09,3.87,14.88,3.87,6.47,0,11.92-1.6,16.32-4.8,4.41-3.2,7.4-7.77,8.99-13.69l-14.36-3c-.83,2.69-2.07,4.75-3.72,6.2Z"/>
      <path class="cls-1" d="M287.53,90.52c-.65-2.48-1.76-4.86-3.31-7.13-1.52-2.27-3.65-4.15-6.41-5.63-2.76-1.48-6.32-2.22-10.69-2.22-5.48,0-10.02,1.19-13.64,3.56-1.68,1.12-3.16,2.4-4.44,3.84v-5.75h-12.5v55.79h14.26v-28.31c0-3.48.38-6.27,1.14-8.37.79-2.1,1.79-3.69,3-4.75,1.21-1.1,2.5-1.84,3.87-2.22,1.38-.38,2.67-.57,3.87-.57,3,0,5.3.67,6.92,2.01,1.65,1.34,2.84,3.01,3.56,5.01.72,2,1.15,4,1.29,5.99.14,1.96.21,3.58.21,4.86v26.35h14.26v-31.3c0-.93-.07-2.41-.21-4.44-.14-2.03-.53-4.27-1.19-6.72Z"/>
      <rect class="cls-1" x="213.31" y="58.59" width="14.05" height="74.39"/>
    </g>
  </g>
</svg>