<?xml version="1.0" encoding="UTF-8"?>
<svg id="Layer_2" xmlns="http://www.w3.org/2000/svg" viewBox="0 0 100 87.61">
  <defs>
    <style>
      .cls-1 {
        fill: #492423;
      }
    </style>
  </defs>
  <g id="Layer_1-2" data-name="Layer_1">
    <g>
      <path class="cls-1" d="M79.67,79.43l-2.67,8.09h2.37l.47-1.55h2.67l.47,1.55h2.37l-2.67-8.09h-3ZM80.33,84.32l.81-2.67h.07l.81,2.67h-1.68Z"/>
      <path class="cls-1" d="M77.45,85.13c0-.31-.05-.59-.15-.85-.09-.26-.24-.49-.45-.7-.2-.21-.46-.39-.79-.55-.32-.16-.7-.28-1.15-.37l-.66-.14c-.25-.05-.46-.12-.62-.18-.16-.07-.28-.16-.35-.25-.07-.1-.11-.21-.11-.34,0-.12.03-.23.1-.32.07-.09.18-.17.32-.22.14-.05.33-.08.55-.08.35,0,.62.07.79.22.18.14.28.35.29.61h2.11c0-.53-.14-.99-.4-1.38-.26-.4-.62-.71-1.1-.92-.47-.22-1.04-.33-1.69-.33s-1.21.11-1.7.33c-.49.21-.87.51-1.15.9-.28.38-.42.83-.42,1.35,0,.63.2,1.13.61,1.5.41.37.98.62,1.69.78l.81.17c.3.06.54.13.72.21.18.08.3.16.38.26.08.09.12.2.12.32,0,.13-.04.25-.12.36-.08.1-.2.18-.36.24-.16.06-.36.09-.59.09-.28,0-.52-.04-.73-.13-.2-.09-.35-.22-.47-.39-.11-.17-.17-.38-.18-.62h-2.08c0,.68.15,1.23.44,1.67.29.43.69.76,1.22.97.52.21,1.14.31,1.84.31s1.27-.1,1.76-.29c.49-.19.86-.47,1.12-.84.26-.37.4-.83.4-1.36Z"/>
      <polygon class="cls-1" points="71.05 79.43 68.49 79.43 66.05 82.7 65.95 82.7 65.95 79.43 63.75 79.43 63.75 87.52 65.95 87.52 65.95 85.43 66.67 84.49 68.49 87.52 71.11 87.52 68.31 83.03 71.05 79.43"/>
      <path class="cls-1" d="M7.62,21.98V0H0v83.11c0,2.47,1.86,4.48,4.16,4.48h56.56v-7.86H7.62V21.98Z"/>
      <path class="cls-1" d="M26.17,4.74v16.63h34.7v-7.71h-27.57v-5.96h58.53v14.19l-.08,56.04v9.34h8.26V0H30.91c-2.62,0-4.74,2.12-4.74,4.74Z"/>
      <path class="cls-1" d="M43.69,73.71h17.17V27.32h-17.17v46.38ZM50.35,34.8h3.85v32.01h-3.85v-32.01Z"/>
      <rect class="cls-1" x="13.31" y=".1" width="7.71" height="34.7"/>
      <polygon class="cls-1" points="21.02 57.74 23.03 63.3 24.29 66.81 26.17 72.03 26.77 73.7 40.65 73.7 40.65 66.81 33.29 66.81 33.29 34.8 40.65 34.8 40.65 27.32 26.17 27.32 26.17 54.15 23.62 47.07 21.1 40.06 13.31 40.06 13.31 73.7 21.02 73.7 21.02 57.74"/>
      <path class="cls-1" d="M83.55,13.77h-20.3v7.71h15.42v5.84h-15.42v46.38h7.48v-10.4h7.94v10.4h7.36v-10.54l-3.27-3.26,3.27-3.27v-16.58h-15.31v-5.26h15.31v-18.54c0-1.37-1.11-2.49-2.49-2.49ZM78.68,47.07v9.46h-7.94v-9.46h7.94Z"/>
    </g>
  </g>
</svg>