<?xml version="1.0" encoding="UTF-8"?>
<svg id="Layer_2" xmlns="http://www.w3.org/2000/svg" viewBox="0 0 795.23 792.97">
  <g id="Layer_1-2" data-name="Layer_1">
    <path d="M607.18,575.47l-20.39,18.12c-9.06,6.8-18.12,11.33-27.19,15.86-9.06,4.53-18.12,6.8-29.45,6.8-4.53,0-106.48,9.06-235.62-117.81-92.89-92.89-126.87-160.86-117.81-235.62,0-9.06,2.27-18.12,6.8-27.19,4.53-9.06,9.06-20.39,15.86-27.19l18.12-20.39c13.59-13.59,36.25-13.59,49.84,0l67.97,67.97c13.59,13.59,13.59,36.25,0,49.84l-11.33,11.33-22.66,22.66c2.27,2.27,2.27,4.53,4.53,6.8,11.33,22.66,29.45,52.11,58.91,81.56,31.72,31.72,61.17,47.58,81.56,58.91,2.27,2.27,4.53,2.27,6.8,4.53l33.98-33.98c13.59-13.59,36.25-13.59,49.84,0l67.97,67.97c15.86,13.59,15.86,36.25,2.27,49.84ZM792.97,367.03C777.1,163.12,607.18,0,396.48,0S0,176.72,0,396.48s176.72,396.48,396.48,396.48c208.44,0,380.62-160.86,396.48-367.03,0-9.06,2.27-20.39,2.27-29.45s-2.27-20.39-2.27-29.45Z"/>
  </g>
</svg>