<svg id="Layer_1" height="512" viewBox="0 0 512 512" width="512" xmlns="http://www.w3.org/2000/svg" data-name="Layer 1"><path d="m254.54 8.0584c-136.7256 0-247.8 111.0771-247.8 247.8027s111.0746 247.7959 247.8 247.7959 247.8-111.07 247.8-247.7959-111.0742-247.8027-247.8-247.8027zm148.3409 327.8994c-1.6936 4.1152-9.68 9.9189-37.7506 14.28-2.42.4786-3.1454 3.3838-4.598 9.68a69.5519 69.5519 0 0 1 -1.6937 6.7744c-.7263 2.1739-1.9362 3.1446-4.1135 3.1446h-.2427a24.6044 24.6044 0 0 1 -6.2916-.9707 105.26 105.26 0 0 0 -16.9394-1.6885 69.9609 69.9609 0 0 0 -12.1.9639c-8.47 1.456-15.4877 6.5351-23.2311 11.86-10.89 7.7451-22.263 15.7295-39.9287 15.7295h-3.8716c-17.6658 0-29.0391-7.9844-39.9287-15.7295-7.5016-5.3252-14.7614-10.4043-23.2311-11.86a69.9617 69.9617 0 0 0 -12.1-.9639 88.5712 88.5712 0 0 0 -16.9395 1.9346 36.2742 36.2742 0 0 1 -6.2925.9638 4.0065 4.0065 0 0 1 -4.3553-3.1445c-.7263-2.42-1.21-4.84-1.6945-7.0137-1.21-5.8105-2.1772-9.2011-4.5971-9.68-28.0718-4.3613-36.057-10.165-37.7515-14.28a5.6918 5.6918 0 0 1 -.4836-1.9346 3.1094 3.1094 0 0 1 2.6617-3.1445c43.0749-7.26 62.4343-51.3037 63.16-53.2383h.2427c2.6617-5.3252 3.1453-10.165 1.4517-13.7949-2.9044-7.0205-12.5841-10.1651-18.8757-12.1a45.6062 45.6062 0 0 1 -4.3553-1.4561c-12.826-5.0791-13.7941-10.1582-13.31-12.8242.9673-4.5938 6.7753-7.7451 11.8569-7.7451a7.7143 7.7143 0 0 1 3.3881.7314c5.808 2.6592 10.89 4.1084 15.2458 4.1084 6.2917 0 8.9534-2.6592 9.1952-2.8984 0-2.9053-.2418-6.05-.4836-9.2012-1.21-20.3232-2.9036-45.7324 3.63-60.252 19.3593-43.3193 60.2562-46.7031 72.3558-46.7031h6.05c12.1 0 53.2383 3.3838 72.5977 46.7031 6.5334 14.52 4.84 39.9288 3.63 60.252v.9707c-.2418 2.6592-.4844 5.5645-.4844 8.2305.2426.2392 2.6625 2.6592 8.2279 2.8984 4.3562-.2392 9.196-1.6885 14.5195-4.1084a11.9572 11.9572 0 0 1 4.598-.9707 12.0957 12.0957 0 0 1 5.0817 1.21h.2418c4.1144 1.4492 7.0179 4.6006 7.0179 7.7451.2419 2.9053-2.1781 7.499-13.31 11.8535-1.21.4854-2.6618.9707-4.1136 1.4561-6.5343 1.9345-16.2139 5.0791-19.1175 12.1-1.6936 3.63-1.21 8.47 1.4518 13.7949h.2418c.7263 1.9346 20.0857 45.9785 63.1606 53.2383a3.1094 3.1094 0 0 1 2.6618 3.1445 5.6729 5.6729 0 0 1 -.4845 1.9346z" fill-rule="evenodd"/></svg>